<svg xmlns="http://www.w3.org/2000/svg" viewBox="0 0 1000 520">
        <style>
            .axis { stroke: #6b7280; stroke-width: 1.5; }
            .line { fill: none; stroke-width: 3; }
            .marker { stroke: #ffffff; stroke-width: 1.5; }
        </style>
        <rect width="100%" height="100%" fill="#ffffff" />
        <text x="60" y="30" font-size="22" font-weight="700" fill="#111827">Actividad - Últimos 30 Días</text>
        <rect x="60" y="18" width="14" height="14" fill="#2563eb" rx="4" /><text x="80" y="30" font-size="13" fill="#111827">Usuarios Nuevos</text><rect x="280" y="18" width="14" height="14" fill="#16a34a" rx="4" /><text x="300" y="30" font-size="13" fill="#111827">Libros Devueltos</text><rect x="500" y="18" width="14" height="14" fill="#f59e0b" rx="4" /><text x="520" y="30" font-size="13" fill="#111827">Libros Pendientes</text><rect x="720" y="18" width="14" height="14" fill="#7c3aed" rx="4" /><text x="740" y="30" font-size="13" fill="#111827">Socios Nuevos</text>
        <g>
            <line x1="60" y1="60" x2="60" y2="460" class="axis" />
            <line x1="60" y1="460" x2="940" y2="460" class="axis" />
            <line x1="60" y1="60.0" x2="940" y2="60.0" stroke="#e5e7eb" stroke-width="1" /><line x1="60" y1="140.0" x2="940" y2="140.0" stroke="#e5e7eb" stroke-width="1" /><line x1="60" y1="220.0" x2="940" y2="220.0" stroke="#e5e7eb" stroke-width="1" /><line x1="60" y1="300.0" x2="940" y2="300.0" stroke="#e5e7eb" stroke-width="1" /><line x1="60" y1="380.0" x2="940" y2="380.0" stroke="#e5e7eb" stroke-width="1" /><line x1="60" y1="460.0" x2="940" y2="460.0" stroke="#e5e7eb" stroke-width="1" />
            <text x="60.0" y="488" text-anchor="middle" font-size="12" fill="#4b5563">17/04</text><text x="272.4" y="488" text-anchor="middle" font-size="12" fill="#4b5563">24/04</text><text x="484.8" y="488" text-anchor="middle" font-size="12" fill="#4b5563">01/05</text><text x="697.2" y="488" text-anchor="middle" font-size="12" fill="#4b5563">08/05</text><text x="909.7" y="488" text-anchor="middle" font-size="12" fill="#4b5563">15/05</text>
        </g>
        <path d="M 60.0,460.0 L 90.3,460.0 L 120.7,460.0 L 151.0,460.0 L 181.4,460.0 L 211.7,460.0 L 242.1,460.0 L 272.4,460.0 L 302.8,460.0 L 333.1,460.0 L 363.4,460.0 L 393.8,460.0 L 424.1,460.0 L 454.5,460.0 L 484.8,460.0 L 515.2,460.0 L 545.5,460.0 L 575.9,460.0 L 606.2,460.0 L 636.6,460.0 L 666.9,460.0 L 697.2,460.0 L 727.6,460.0 L 757.9,460.0 L 788.3,460.0 L 818.6,460.0 L 849.0,460.0 L 879.3,460.0 L 909.7,460.0 L 940.0,60.0" class="line" stroke="#2563eb" /><path d="M 60.0,460.0 L 90.3,460.0 L 120.7,460.0 L 151.0,460.0 L 181.4,460.0 L 211.7,460.0 L 242.1,460.0 L 272.4,460.0 L 302.8,460.0 L 333.1,460.0 L 363.4,460.0 L 393.8,460.0 L 424.1,460.0 L 454.5,460.0 L 484.8,460.0 L 515.2,460.0 L 545.5,460.0 L 575.9,460.0 L 606.2,460.0 L 636.6,460.0 L 666.9,460.0 L 697.2,460.0 L 727.6,460.0 L 757.9,460.0 L 788.3,460.0 L 818.6,460.0 L 849.0,460.0 L 879.3,460.0 L 909.7,460.0 L 940.0,460.0" class="line" stroke="#16a34a" /><path d="M 60.0,460.0 L 90.3,460.0 L 120.7,460.0 L 151.0,460.0 L 181.4,460.0 L 211.7,460.0 L 242.1,460.0 L 272.4,460.0 L 302.8,460.0 L 333.1,460.0 L 363.4,460.0 L 393.8,460.0 L 424.1,460.0 L 454.5,460.0 L 484.8,460.0 L 515.2,460.0 L 545.5,460.0 L 575.9,460.0 L 606.2,460.0 L 636.6,460.0 L 666.9,460.0 L 697.2,460.0 L 727.6,460.0 L 757.9,460.0 L 788.3,460.0 L 818.6,460.0 L 849.0,460.0 L 879.3,460.0 L 909.7,460.0 L 940.0,460.0" class="line" stroke="#f59e0b" /><path d="M 60.0,460.0 L 90.3,460.0 L 120.7,460.0 L 151.0,460.0 L 181.4,460.0 L 211.7,460.0 L 242.1,460.0 L 272.4,460.0 L 302.8,460.0 L 333.1,460.0 L 363.4,460.0 L 393.8,460.0 L 424.1,460.0 L 454.5,460.0 L 484.8,460.0 L 515.2,460.0 L 545.5,460.0 L 575.9,460.0 L 606.2,460.0 L 636.6,460.0 L 666.9,460.0 L 697.2,460.0 L 727.6,460.0 L 757.9,460.0 L 788.3,460.0 L 818.6,460.0 L 849.0,460.0 L 879.3,460.0 L 909.7,460.0 L 940.0,60.0" class="line" stroke="#7c3aed" />
        <circle cx="60.0" cy="460.0" r="4" fill="#2563eb" class="marker" /><circle cx="90.3" cy="460.0" r="4" fill="#2563eb" class="marker" /><circle cx="120.7" cy="460.0" r="4" fill="#2563eb" class="marker" /><circle cx="151.0" cy="460.0" r="4" fill="#2563eb" class="marker" /><circle cx="181.4" cy="460.0" r="4" fill="#2563eb" class="marker" /><circle cx="211.7" cy="460.0" r="4" fill="#2563eb" class="marker" /><circle cx="242.1" cy="460.0" r="4" fill="#2563eb" class="marker" /><circle cx="272.4" cy="460.0" r="4" fill="#2563eb" class="marker" /><circle cx="302.8" cy="460.0" r="4" fill="#2563eb" class="marker" /><circle cx="333.1" cy="460.0" r="4" fill="#2563eb" class="marker" /><circle cx="363.4" cy="460.0" r="4" fill="#2563eb" class="marker" /><circle cx="393.8" cy="460.0" r="4" fill="#2563eb" class="marker" /><circle cx="424.1" cy="460.0" r="4" fill="#2563eb" class="marker" /><circle cx="454.5" cy="460.0" r="4" fill="#2563eb" class="marker" /><circle cx="484.8" cy="460.0" r="4" fill="#2563eb" class="marker" /><circle cx="515.2" cy="460.0" r="4" fill="#2563eb" class="marker" /><circle cx="545.5" cy="460.0" r="4" fill="#2563eb" class="marker" /><circle cx="575.9" cy="460.0" r="4" fill="#2563eb" class="marker" /><circle cx="606.2" cy="460.0" r="4" fill="#2563eb" class="marker" /><circle cx="636.6" cy="460.0" r="4" fill="#2563eb" class="marker" /><circle cx="666.9" cy="460.0" r="4" fill="#2563eb" class="marker" /><circle cx="697.2" cy="460.0" r="4" fill="#2563eb" class="marker" /><circle cx="727.6" cy="460.0" r="4" fill="#2563eb" class="marker" /><circle cx="757.9" cy="460.0" r="4" fill="#2563eb" class="marker" /><circle cx="788.3" cy="460.0" r="4" fill="#2563eb" class="marker" /><circle cx="818.6" cy="460.0" r="4" fill="#2563eb" class="marker" /><circle cx="849.0" cy="460.0" r="4" fill="#2563eb" class="marker" /><circle cx="879.3" cy="460.0" r="4" fill="#2563eb" class="marker" /><circle cx="909.7" cy="460.0" r="4" fill="#2563eb" class="marker" /><circle cx="940.0" cy="60.0" r="4" fill="#2563eb" class="marker" /><circle cx="60.0" cy="460.0" r="4" fill="#16a34a" class="marker" /><circle cx="90.3" cy="460.0" r="4" fill="#16a34a" class="marker" /><circle cx="120.7" cy="460.0" r="4" fill="#16a34a" class="marker" /><circle cx="151.0" cy="460.0" r="4" fill="#16a34a" class="marker" /><circle cx="181.4" cy="460.0" r="4" fill="#16a34a" class="marker" /><circle cx="211.7" cy="460.0" r="4" fill="#16a34a" class="marker" /><circle cx="242.1" cy="460.0" r="4" fill="#16a34a" class="marker" /><circle cx="272.4" cy="460.0" r="4" fill="#16a34a" class="marker" /><circle cx="302.8" cy="460.0" r="4" fill="#16a34a" class="marker" /><circle cx="333.1" cy="460.0" r="4" fill="#16a34a" class="marker" /><circle cx="363.4" cy="460.0" r="4" fill="#16a34a" class="marker" /><circle cx="393.8" cy="460.0" r="4" fill="#16a34a" class="marker" /><circle cx="424.1" cy="460.0" r="4" fill="#16a34a" class="marker" /><circle cx="454.5" cy="460.0" r="4" fill="#16a34a" class="marker" /><circle cx="484.8" cy="460.0" r="4" fill="#16a34a" class="marker" /><circle cx="515.2" cy="460.0" r="4" fill="#16a34a" class="marker" /><circle cx="545.5" cy="460.0" r="4" fill="#16a34a" class="marker" /><circle cx="575.9" cy="460.0" r="4" fill="#16a34a" class="marker" /><circle cx="606.2" cy="460.0" r="4" fill="#16a34a" class="marker" /><circle cx="636.6" cy="460.0" r="4" fill="#16a34a" class="marker" /><circle cx="666.9" cy="460.0" r="4" fill="#16a34a" class="marker" /><circle cx="697.2" cy="460.0" r="4" fill="#16a34a" class="marker" /><circle cx="727.6" cy="460.0" r="4" fill="#16a34a" class="marker" /><circle cx="757.9" cy="460.0" r="4" fill="#16a34a" class="marker" /><circle cx="788.3" cy="460.0" r="4" fill="#16a34a" class="marker" /><circle cx="818.6" cy="460.0" r="4" fill="#16a34a" class="marker" /><circle cx="849.0" cy="460.0" r="4" fill="#16a34a" class="marker" /><circle cx="879.3" cy="460.0" r="4" fill="#16a34a" class="marker" /><circle cx="909.7" cy="460.0" r="4" fill="#16a34a" class="marker" /><circle cx="940.0" cy="460.0" r="4" fill="#16a34a" class="marker" /><circle cx="60.0" cy="460.0" r="4" fill="#f59e0b" class="marker" /><circle cx="90.3" cy="460.0" r="4" fill="#f59e0b" class="marker" /><circle cx="120.7" cy="460.0" r="4" fill="#f59e0b" class="marker" /><circle cx="151.0" cy="460.0" r="4" fill="#f59e0b" class="marker" /><circle cx="181.4" cy="460.0" r="4" fill="#f59e0b" class="marker" /><circle cx="211.7" cy="460.0" r="4" fill="#f59e0b" class="marker" /><circle cx="242.1" cy="460.0" r="4" fill="#f59e0b" class="marker" /><circle cx="272.4" cy="460.0" r="4" fill="#f59e0b" class="marker" /><circle cx="302.8" cy="460.0" r="4" fill="#f59e0b" class="marker" /><circle cx="333.1" cy="460.0" r="4" fill="#f59e0b" class="marker" /><circle cx="363.4" cy="460.0" r="4" fill="#f59e0b" class="marker" /><circle cx="393.8" cy="460.0" r="4" fill="#f59e0b" class="marker" /><circle cx="424.1" cy="460.0" r="4" fill="#f59e0b" class="marker" /><circle cx="454.5" cy="460.0" r="4" fill="#f59e0b" class="marker" /><circle cx="484.8" cy="460.0" r="4" fill="#f59e0b" class="marker" /><circle cx="515.2" cy="460.0" r="4" fill="#f59e0b" class="marker" /><circle cx="545.5" cy="460.0" r="4" fill="#f59e0b" class="marker" /><circle cx="575.9" cy="460.0" r="4" fill="#f59e0b" class="marker" /><circle cx="606.2" cy="460.0" r="4" fill="#f59e0b" class="marker" /><circle cx="636.6" cy="460.0" r="4" fill="#f59e0b" class="marker" /><circle cx="666.9" cy="460.0" r="4" fill="#f59e0b" class="marker" /><circle cx="697.2" cy="460.0" r="4" fill="#f59e0b" class="marker" /><circle cx="727.6" cy="460.0" r="4" fill="#f59e0b" class="marker" /><circle cx="757.9" cy="460.0" r="4" fill="#f59e0b" class="marker" /><circle cx="788.3" cy="460.0" r="4" fill="#f59e0b" class="marker" /><circle cx="818.6" cy="460.0" r="4" fill="#f59e0b" class="marker" /><circle cx="849.0" cy="460.0" r="4" fill="#f59e0b" class="marker" /><circle cx="879.3" cy="460.0" r="4" fill="#f59e0b" class="marker" /><circle cx="909.7" cy="460.0" r="4" fill="#f59e0b" class="marker" /><circle cx="940.0" cy="460.0" r="4" fill="#f59e0b" class="marker" /><circle cx="60.0" cy="460.0" r="4" fill="#7c3aed" class="marker" /><circle cx="90.3" cy="460.0" r="4" fill="#7c3aed" class="marker" /><circle cx="120.7" cy="460.0" r="4" fill="#7c3aed" class="marker" /><circle cx="151.0" cy="460.0" r="4" fill="#7c3aed" class="marker" /><circle cx="181.4" cy="460.0" r="4" fill="#7c3aed" class="marker" /><circle cx="211.7" cy="460.0" r="4" fill="#7c3aed" class="marker" /><circle cx="242.1" cy="460.0" r="4" fill="#7c3aed" class="marker" /><circle cx="272.4" cy="460.0" r="4" fill="#7c3aed" class="marker" /><circle cx="302.8" cy="460.0" r="4" fill="#7c3aed" class="marker" /><circle cx="333.1" cy="460.0" r="4" fill="#7c3aed" class="marker" /><circle cx="363.4" cy="460.0" r="4" fill="#7c3aed" class="marker" /><circle cx="393.8" cy="460.0" r="4" fill="#7c3aed" class="marker" /><circle cx="424.1" cy="460.0" r="4" fill="#7c3aed" class="marker" /><circle cx="454.5" cy="460.0" r="4" fill="#7c3aed" class="marker" /><circle cx="484.8" cy="460.0" r="4" fill="#7c3aed" class="marker" /><circle cx="515.2" cy="460.0" r="4" fill="#7c3aed" class="marker" /><circle cx="545.5" cy="460.0" r="4" fill="#7c3aed" class="marker" /><circle cx="575.9" cy="460.0" r="4" fill="#7c3aed" class="marker" /><circle cx="606.2" cy="460.0" r="4" fill="#7c3aed" class="marker" /><circle cx="636.6" cy="460.0" r="4" fill="#7c3aed" class="marker" /><circle cx="666.9" cy="460.0" r="4" fill="#7c3aed" class="marker" /><circle cx="697.2" cy="460.0" r="4" fill="#7c3aed" class="marker" /><circle cx="727.6" cy="460.0" r="4" fill="#7c3aed" class="marker" /><circle cx="757.9" cy="460.0" r="4" fill="#7c3aed" class="marker" /><circle cx="788.3" cy="460.0" r="4" fill="#7c3aed" class="marker" /><circle cx="818.6" cy="460.0" r="4" fill="#7c3aed" class="marker" /><circle cx="849.0" cy="460.0" r="4" fill="#7c3aed" class="marker" /><circle cx="879.3" cy="460.0" r="4" fill="#7c3aed" class="marker" /><circle cx="909.7" cy="460.0" r="4" fill="#7c3aed" class="marker" /><circle cx="940.0" cy="60.0" r="4" fill="#7c3aed" class="marker" />
    </svg>